HIERARCHY
ROOT Hips
{
	OFFSET 0.000000 0.000000 0.000000
	CHANNELS 6 Xposition Yposition Zposition Xrotation Yrotation Zrotation
	JOINT Chest
	{
		OFFSET 0.000000 9.585900 0.002600
		CHANNELS 3 Xrotation Yrotation Zrotation
		JOINT Chest2
		{
			OFFSET 0.000000 9.601200 -0.005300
			CHANNELS 3 Xrotation Yrotation Zrotation
			JOINT Chest3
			{
				OFFSET 0.000000 9.561800 0.000000
				CHANNELS 3 Xrotation Yrotation Zrotation
				JOINT Chest4
				{
					OFFSET 0.000000 9.552100 0.000000
					CHANNELS 3 Xrotation Yrotation Zrotation
					JOINT Neck
					{
						OFFSET 0.000000 14.453000 0.000000
						CHANNELS 3 Xrotation Yrotation Zrotation
						JOINT Head
						{
							OFFSET 0.000000 8.936500 -0.011300
							CHANNELS 3 Xrotation Yrotation Zrotation
							End Site
							{
								OFFSET 0.000000 0.000000 0.000000
							}
						}
					}
					JOINT RightCollar
					{
						OFFSET -2.921100 9.558500 0.000000
						CHANNELS 3 Xrotation Yrotation Zrotation
						JOINT RightShoulder
						{
							OFFSET -13.519700 0.000000 0.000000
							CHANNELS 3 Xrotation Yrotation Zrotation
							JOINT RightElbow
							{
								OFFSET 0.000000 -29.696600 0.000000
								CHANNELS 3 Xrotation Yrotation Zrotation
								JOINT RightWrist
								{
									OFFSET 0.000000 -24.004700 0.000000
									CHANNELS 3 Xrotation Yrotation Zrotation
									End Site
									{
										OFFSET 0.000000 0.000000 0.000000
									}
								}
							}
						}
					}
					JOINT LeftCollar
					{
						OFFSET 2.921100 9.558500 0.000000
						CHANNELS 3 Xrotation Yrotation Zrotation
						JOINT LeftShoulder
						{
							OFFSET 13.519700 0.000000 0.000000
							CHANNELS 3 Xrotation Yrotation Zrotation
							JOINT LeftElbow
							{
								OFFSET 0.000000 -29.696600 0.000000
								CHANNELS 3 Xrotation Yrotation Zrotation
								JOINT LeftWrist
								{
									OFFSET 0.000000 -24.004700 0.000000
									CHANNELS 3 Xrotation Yrotation Zrotation
									End Site
									{
										OFFSET 0.000000 0.000000 0.000000
									}
								}
							}
						}
					}
				}
			}
		}
	}
	JOINT RightHip
	{
		OFFSET -7.771700 -0.012900 -0.001300
		CHANNELS 3 Xrotation Yrotation Zrotation
		JOINT RightKnee
		{
			OFFSET 0.000000 -40.869801 0.001200
			CHANNELS 3 Xrotation Yrotation Zrotation
			JOINT RightAnkle
			{
				OFFSET 0.000000 -39.717899 0.002100
				CHANNELS 3 Xrotation Yrotation Zrotation
				JOINT RightToe
				{
					OFFSET 0.000000 -4.965400 11.033500
					CHANNELS 3 Xrotation Yrotation Zrotation
					End Site
					{
						OFFSET 0.000000 0.000000 0.000000
					}
				}
			}
		}
	}
	JOINT LeftHip
	{
		OFFSET 7.771700 -0.012900 -0.001300
		CHANNELS 3 Xrotation Yrotation Zrotation
		JOINT LeftKnee
		{
			OFFSET 0.000000 -40.869801 0.001200
			CHANNELS 3 Xrotation Yrotation Zrotation
			JOINT LeftAnkle
			{
				OFFSET 0.000000 -39.717899 0.002100
				CHANNELS 3 Xrotation Yrotation Zrotation
				JOINT LeftToe
				{
					OFFSET 0.000000 -4.965400 11.033500
					CHANNELS 3 Xrotation Yrotation Zrotation
					End Site
					{
						OFFSET 0.000000 0.000000 0.000000
					}
				}
			}
		}
	}
}
MOTION
Frames: 11
Frame Time: 0.032
0.0 0.0 0.0 -171.850578 26.863421 178.533154 9.259366 3.979236 0.547893 0.917092 -0.496421 0.127198 2.643826 -0.125594 0.711132 7.285216 2.093752 -0.007707 15.530735 -0.003458 -2.318939 -9.278937 5.748168 0.135694 2.252586 6.132657 -0.807849 -29.546876 19.613889 -18.194630 -73.258765 -20.190796 39.097017 -1.606526 2.169818 -24.176899 0.251013 -7.849415 -5.688646 -22.387395 5.699486 8.852170 -70.664113 18.421170 -57.314501 17.856181 -10.874027 -3.877148 -61.789279 -1.851226 3.525857 75.448674 -9.840505 1.134290 -8.076939 -4.525394 2.197736 1.054314 0.072124 0.226380 -63.503656 10.044007 15.407548 70.542180 14.049370 1.838559 -20.163036 -19.708837 -2.428964 -0.027622 -0.030277 -0.375168
0.0 0.0 0.0 -171.869266 26.848700 178.519780 9.207684 4.020213 0.542395 0.861502 -0.466370 0.118706 2.599053 -0.092713 0.708559 7.225320 2.112698 -0.010144 15.499000 0.016971 -2.356183 -9.310731 5.783120 0.151520 2.244107 6.121286 -0.781067 -29.510187 19.489562 -18.146547 -73.594086 -20.325402 38.801065 -1.748159 2.160369 -24.249347 0.165898 -7.772153 -5.694186 -22.271087 6.004104 8.936316 -70.814513 18.753266 -57.192719 17.817693 -10.813071 -3.904973 -61.811860 -1.810469 3.541784 75.421134 -9.827449 1.169689 -8.132726 -4.511042 2.192674 1.010699 0.099238 0.234097 -63.527262 10.071678 15.408132 70.521314 14.050717 1.860342 -20.195927 -19.653835 -2.415349 -0.074109 -0.002657 -0.375972
0.0 0.0 0.0 -171.893090 26.858098 178.494631 9.195585 4.027324 0.546334 0.835187 -0.473434 0.105771 2.573270 -0.092735 0.706204 7.194128 2.096353 -0.010824 15.496335 0.005009 -2.375566 -9.324356 5.770952 0.185129 2.249543 6.080410 -0.730937 -29.488590 19.321868 -18.110494 -73.891172 -20.454246 38.510587 -1.843880 2.140577 -24.309948 0.123976 -7.734332 -5.713856 -22.153288 6.255549 9.034767 -71.046617 18.991302 -57.056638 17.806797 -10.836271 -3.940342 -61.824892 -1.838507 3.561615 75.417316 -9.845946 1.199153 -8.145829 -4.532372 2.200656 0.999693 0.085857 0.249553 -63.545006 10.047586 15.430488 70.512599 14.044269 1.894281 -20.223468 -19.670361 -2.431662 -0.091779 -0.017177 -0.377800
0.0 0.0 0.0 -171.917829 26.855831 178.475657 9.158531 4.051357 0.543456 0.790232 -0.460502 0.111703 2.541649 -0.078109 0.711628 7.146346 2.100998 0.000761 15.488106 0.010624 -2.413819 -9.348014 5.788569 0.188297 2.286586 6.052996 -0.721664 -29.398961 19.206576 -18.041448 -74.208346 -20.594555 38.265022 -1.941497 2.150673 -24.343049 0.080322 -7.675132 -5.704708 -21.986739 6.535571 9.092831 -71.321689 19.255613 -56.995617 17.829107 -10.850569 -3.986996 -61.845369 -1.832830 3.583945 75.392994 -9.847741 1.229244 -8.174824 -4.536610 2.200151 0.975782 0.090950 0.248512 -63.570217 10.058033 15.438913 70.485312 14.036315 1.919420 -20.238542 -19.656448 -2.409021 -0.122760 -0.012051 -0.374493
0.0 0.0 0.0 -171.905739 26.861508 178.457653 9.150429 4.064949 0.548977 0.776969 -0.469377 0.094934 2.523405 -0.085728 0.695680 7.120565 2.081227 -0.012733 15.481380 -0.012026 -2.456436 -9.339417 5.791686 0.217603 2.320683 5.993729 -0.694941 -29.321319 19.009011 -17.920378 -74.573904 -20.797496 37.954255 -2.057363 2.127677 -24.391833 0.040372 -7.633063 -5.730937 -21.810481 6.845452 9.121884 -71.571517 19.558469 -56.934787 17.830914 -10.816760 -4.031519 -61.832350 -1.858930 3.577070 75.397338 -9.835755 1.251379 -8.189342 -4.562659 2.194913 0.982122 0.092227 0.263417 -63.573338 10.027080 15.419494 70.490598 14.016725 1.939319 -20.225228 -19.646942 -2.408091 -0.121308 -0.012196 -0.369928
0.0 0.0 0.0 -171.856179 26.848125 178.436479 9.145224 4.095791 0.502852 0.758701 -0.459061 0.097546 2.519499 -0.066278 0.718933 7.098198 2.090677 -0.002440 15.495609 -0.000453 -2.540034 -9.335890 5.807130 0.202794 2.384730 5.952846 -0.708816 -29.155991 18.766995 -17.917948 -75.093695 -21.034493 37.503114 -2.207344 2.107840 -24.440319 -0.004269 -7.560913 -5.714118 -21.628175 7.257546 9.265395 -71.925703 19.934703 -56.751304 17.760416 -10.781039 -4.083811 -61.821593 -1.843403 3.574243 75.385918 -9.840660 1.255509 -8.199342 -4.563458 2.167651 0.972267 0.100227 0.243338 -63.547957 10.013532 15.418372 70.492197 13.995541 1.934528 -20.215150 -19.612301 -2.379929 -0.132248 -0.005341 -0.379580
0.0 0.0 0.0 -171.835702 26.848717 178.400703 9.103321 4.143965 0.476126 0.721653 -0.431101 0.075094 2.491998 -0.032335 0.719006 7.055704 2.109254 -0.016552 15.511279 0.020009 -2.612481 -9.339362 5.840982 0.229576 2.439710 5.898867 -0.678197 -28.939180 18.453954 -17.906830 -75.677567 -21.293248 36.958734 -2.363448 2.098603 -24.507152 -0.069478 -7.458422 -5.742042 -21.391036 7.761141 9.380483 -72.371940 20.446357 -56.516595 17.696207 -10.746305 -4.121515 -61.809947 -1.831106 3.588651 75.369751 -9.814033 1.293066 -8.212769 -4.562612 2.170986 0.961976 0.121656 0.260502 -63.533593 10.016890 15.415223 70.501622 14.009964 1.962093 -20.227515 -19.567659 -2.372946 -0.152683 0.016302 -0.381547
0.0 0.0 0.0 -171.842382 26.868303 178.381701 9.067025 4.179565 0.460781 0.683059 -0.426828 0.066452 2.462918 -0.016751 0.721106 7.001836 2.115354 -0.016038 15.502769 0.019549 -2.693099 -9.352634 5.868333 0.244834 2.484354 5.834399 -0.669472 -28.824604 18.170982 -17.832377 -76.296430 -21.588621 36.439035 -2.546645 2.077772 -24.577538 -0.129186 -7.377083 -5.755213 -21.192465 8.269524 9.482393 -72.767538 20.892548 -56.318632 17.667901 -10.718561 -4.170927 -61.822323 -1.828469 3.598557 75.344814 -9.809685 1.318275 -8.232754 -4.576786 2.156328 0.950677 0.133999 0.258158 -63.556918 10.020527 15.415295 70.477464 14.001924 1.987677 -20.235183 -19.547682 -2.356981 -0.170645 0.028023 -0.383697
0.0 0.0 0.0 -171.854909 26.868069 178.344217 9.059950 4.227151 0.486287 0.670625 -0.402535 0.053555 2.464782 0.011938 0.702643 6.977286 2.138176 -0.030219 15.517300 0.046039 -2.705269 -9.350885 5.904811 0.275360 2.563446 5.810713 -0.647306 -28.677765 17.997424 -17.762523 -76.735591 -21.810715 36.051494 -2.647592 2.087207 -24.628969 -0.153005 -7.305628 -5.759550 -21.043087 8.659394 9.552023 -73.070907 21.220450 -56.164823 17.660438 -10.671693 -4.181512 -61.802461 -1.824405 3.633667 75.340306 -9.760088 1.358952 -8.230251 -4.576073 2.189091 0.953401 0.155541 0.286282 -63.549904 10.050326 15.389256 70.467021 14.043662 2.025916 -20.225922 -19.516128 -2.350457 -0.173690 0.049194 -0.374036
0.0 0.0 0.0 -171.802344 26.880705 178.371060 9.063885 4.259340 0.427090 0.672667 -0.384511 0.090959 2.476100 0.037466 0.763916 6.970556 2.159131 0.010746 15.540731 0.058219 -2.797318 -9.332103 5.933107 0.249908 2.624417 5.779713 -0.676034 -28.560882 17.805753 -17.805441 -77.162819 -22.050248 35.705558 -2.735913 2.050089 -24.630724 -0.175784 -7.246164 -5.716714 -20.915656 9.008209 9.698800 -73.347803 21.543166 -56.052682 17.637647 -10.648171 -4.247036 -61.797967 -1.804458 3.609817 75.317056 -9.761577 1.334472 -8.215685 -4.571428 2.142650 0.969044 0.170420 0.253965 -63.545826 10.034695 15.432138 70.460190 14.042687 1.998233 -20.217312 -19.507840 -2.299924 -0.161737 0.064198 -0.375152
0.0 0.0 0.0 -171.830744 26.884395 178.328439 9.014182 4.267404 0.440409 0.618064 -0.397219 0.053753 2.421903 0.024387 0.738783 6.903733 2.138022 -0.018328 15.494843 0.037531 -2.829756 -9.366750 5.941625 0.301821 2.621089 5.721446 -0.623141 -28.481189 17.608532 -17.718103 -77.661184 -22.248513 35.299831 -2.893898 2.014056 -24.684995 -0.255362 -7.205442 -5.769203 -20.813921 9.362868 9.748312 -73.662108 21.864884 -55.872392 17.569089 -10.631124 -4.267091 -61.822098 -1.810548 3.624226 75.297180 -9.770806 1.383007 -8.262727 -4.602246 2.150208 0.933238 0.167128 0.285362 -63.567662 10.031758 15.417260 70.442090 14.018595 2.038657 -20.255727 -19.488686 -2.307576 -0.202120 0.060833 -0.373915
